<svg xmlns="http://www.w3.org/2000/svg" width="1200" height="630" viewBox="0 0 1200 630">
  <!-- Background -->
  <rect width="1200" height="630" fill="#0A0A0A"/>

  <!-- Grid pattern -->
  <defs>
    <pattern id="grid" width="60" height="60" patternUnits="userSpaceOnUse">
      <path d="M 60 0 L 0 0 0 60" fill="none" stroke="rgba(255,255,255,0.03)" stroke-width="1"/>
    </pattern>
  </defs>
  <rect width="1200" height="630" fill="url(#grid)"/>

  <!-- Logo (scaled and centered) -->
  <g transform="translate(540, 140) scale(0.2)">
    <g transform="translate(0,550) scale(0.1,-0.1)" fill="#FFFFFF">
      <path d="M3043 4598 c56 -67 189 -245 349 -468 68 -96 198 -276 288 -400 227 -312 540 -745 571 -788 14 -21 104 -145 199 -277 96 -132 244 -337 329 -455 85 -118 212 -294 281 -390 69 -96 183 -255 254 -352 l127 -178 -82 -127 c-46 -71 -136 -208 -200 -306 -65 -98 -119 -182 -121 -188 -2 -6 -33 6 -68 26 -65 37 -421 272 -430 284 -3 4 -21 18 -40 31 -35 24 -267 195 -437 322 -50 37 -99 68 -108 68 -21 0 -271 -127 -445 -226 -226 -129 -494 -274 -506 -274 -11 0 -104 49 -641 341 -161 88 -297 159 -303 159 -12 0 -348 -223 -608 -403 -97 -68 -253 -174 -347 -237 -150 -100 -170 -111 -180 -96 -5 10 -24 39 -40 64 -55 86 -302 498 -331 553 -3 6 55 89 380 542 39 54 103 143 141 197 39 54 169 237 290 405 121 169 252 351 290 405 93 131 158 220 220 305 56 76 265 364 385 530 109 151 228 314 322 441 46 62 155 209 243 328 87 119 162 216 166 216 4 0 27 -24 52 -52z"/>
    </g>
  </g>

  <!-- Company Name -->
  <text x="600" y="380" text-anchor="middle" font-family="'Space Grotesk', sans-serif" font-size="42" font-weight="700" letter-spacing="0.1em" fill="#FFFFFF">SENTRY TECHNOLOGIES</text>

  <!-- Tagline -->
  <text x="600" y="440" text-anchor="middle" font-family="'Space Grotesk', sans-serif" font-size="32" font-weight="600" letter-spacing="-0.02em" fill="#F59E0B">AIRSPACE INTELLIGENCE</text>

  <!-- Subtitle -->
  <text x="600" y="500" text-anchor="middle" font-family="'Space Grotesk', sans-serif" font-size="18" fill="#9CA3AF">AI-powered counter-drone systems</text>

  <!-- Bottom accent line -->
  <rect x="540" y="540" width="120" height="3" fill="#F59E0B"/>
</svg>
